<?xml version="1.0" encoding="UTF-8" standalone="no"?>
<svg width="32px" height="31px" viewBox="0 0 32 31" version="1.1" xmlns="http://www.w3.org/2000/svg" xmlns:xlink="http://www.w3.org/1999/xlink" xmlns:sketch="http://www.bohemiancoding.com/sketch/ns">
    <!-- Generator: Sketch 3.3.3 (12081) - http://www.bohemiancoding.com/sketch -->
    <title>Group</title>
    <desc>Created with Sketch.</desc>
    <defs></defs>
    <g id="Page-1" stroke="none" stroke-width="1" fill="none" fill-rule="evenodd" sketch:type="MSPage">
        <g id="Group" sketch:type="MSLayerGroup" fill="#000000">
            <path d="M15.7499526,0.319976463 C18.1675525,0.319976463 20.1229642,2.27538818 20.1229642,4.69298813 C20.1229642,7.11058807 18.1675525,9.06599979 15.7499526,9.06599979 C13.3323526,9.06599979 11.3769409,7.11058807 11.3769409,4.69298813 C11.3769409,2.27538818 13.3323526,0.319976463 15.7499526,0.319976463 L15.7499526,0.319976463 Z" id="Shape" sketch:type="MSShapeGroup"></path>
            <path d="M22.1494818,15.7855055 C21.9361642,15.8210585 21.6872936,15.8921643 21.473976,15.9277173 C18.0964466,16.9587526 15.5721879,20.0874113 15.5721879,23.856023 C15.5721879,25.02927 15.8210585,26.1669641 16.2832467,27.1979994 C13.8656467,27.2691053 11.4124939,26.9491288 9.70595272,26.23807 C9.13710567,26.0247523 8.67491745,25.7403288 8.31938805,25.4203524 C7.99941158,25.1003759 7.750541,24.8159524 7.60832924,24.3893171 C7.46611748,24.0337877 7.35945866,23.6071524 7.35945866,23.1449642 L7.35945866,23.0738583 C7.35945866,21.5095289 7.60832924,20.0518584 7.99941158,18.7719525 C8.88823509,15.8921643 10.5947762,13.723435 12.4079762,12.514635 C12.9768232,12.0879997 13.5456703,11.8391291 14.1145173,11.6258115 C14.6833644,11.4124939 15.2522114,11.305835 15.7499526,11.305835 C16.3543526,11.305835 16.9943055,11.4480468 17.6342584,11.6969174 C18.2031055,11.910235 18.7008466,12.1946585 19.2696937,12.6212938 C20.3718348,13.3679056 21.3317642,14.4700467 22.1494818,15.7855055 L22.1494818,15.7855055 Z" id="Shape" sketch:type="MSShapeGroup"></path>
            <path d="M31.6776699,20.6918113 C31.6776699,20.9051289 31.6776699,21.0473407 31.6421169,21.2606583 C30.6110817,18.1675525 27.8023994,15.9277173 24.3893171,15.6788467 C24.1404465,15.0744467 23.82047,14.5411526 23.4649406,14.0434114 C22.7538818,12.9057174 21.8650583,11.945788 20.9406819,11.1991762 C22.042823,10.4881174 23.1449642,10.0614821 24.1404465,10.0614821 C26.4869406,10.0614821 29.5800464,12.3368703 30.9666111,16.2832467 C31.3932463,17.5631525 31.6776699,19.0208231 31.6776699,20.6918113 L31.6776699,20.6918113 Z" id="Shape" sketch:type="MSShapeGroup"></path>
            <path d="M20.869576,22.4339054 C20.1585172,23.6782583 21.1895525,24.8515053 22.0072701,25.63367 C22.4694583,26.0958582 23.7493642,27.1624464 23.9982347,27.3757641 C24.1759995,27.2335523 24.7092936,26.7713641 25.2425877,26.3447288 C25.5625641,26.0958582 25.8469876,25.8114347 26.0247523,25.63367 C26.84247,24.8159524 27.8735052,23.6782583 27.1624464,22.4339054 C26.4869406,21.2962113 24.7448465,21.2606583 24.0337877,22.3272466 C23.2871759,21.2962113 21.5450819,21.2962113 20.869576,22.4339054 L20.869576,22.4339054 Z M29.9711287,23.2871759 C30.0066817,23.5004936 30.0066817,23.6427053 30.0066817,23.856023 C30.0066817,24.42487 29.9711287,24.9226112 29.793364,25.4559053 C29.0823052,28.0868229 26.7002582,30.0422346 23.82047,30.0422346 C22.5050113,30.0422346 21.2962113,29.6511523 20.265176,28.9045405 C19.5541172,28.4423523 18.9852702,27.7668464 18.5230819,27.0557876 C17.9542349,26.1314112 17.5987055,24.9937171 17.5987055,23.8915759 C17.5987055,20.7984701 19.9096466,18.2386584 22.8249877,17.7764702 C22.9316465,17.7409172 23.0383054,17.7409172 23.1449642,17.7409172 C23.3938348,17.7053643 23.6071524,17.7053643 23.82047,17.7053643 C24.3182112,17.7053643 24.8515053,17.8120231 25.3136935,17.9186819 C27.8735052,18.4519761 29.7578111,20.6918113 29.9711287,23.2871759 L29.9711287,23.2871759 Z" id="Shape" sketch:type="MSShapeGroup"></path>
            <path d="M10.8436468,11.0214115 C9.81261154,11.8035762 8.88823509,12.7635056 8.1060704,14.0078585 C7.25279984,15.2877644 6.57729397,16.7454349 6.11510574,18.2742113 C5.61736458,19.8740937 5.368494,21.5095289 5.40404694,23.0383054 C5.40404694,23.4649406 5.40404694,23.82047 5.51070576,24.1759995 C3.66195286,23.9626818 2.0265176,23.4649406 1.20879997,22.682776 C0.604399986,22.1139289 0.319976463,21.438423 0.319976463,20.6207054 C0.319976463,14.0434114 4.72854107,9.99037624 7.89275276,9.99037624 C8.81712921,9.99037624 9.88371742,10.3459056 10.8436468,11.0214115 L10.8436468,11.0214115 Z" id="Shape" sketch:type="MSShapeGroup"></path>
            <path d="M10.4525645,1.20879997 C9.74150566,2.23983524 9.31487038,3.48418816 9.31487038,4.87075283 C9.31487038,5.83068222 9.52818802,6.79061161 9.88371742,7.64388218 C9.31487038,8.07051746 8.60381157,8.24828217 7.82164688,8.24828217 C6.68395279,8.24828217 5.65291752,7.78609394 4.94185871,7.00392925 C4.83519989,6.86171749 4.72854107,6.68395279 4.58632931,6.54174103 C4.08858814,5.86623516 3.80416462,5.08407047 3.80416462,4.2307999 C3.80416462,2.0265176 5.61736458,0.213317642 7.82164688,0.213317642 C8.85268215,0.213317642 9.74150566,0.568847046 10.4525645,1.20879997 L10.4525645,1.20879997 Z" id="Shape" sketch:type="MSShapeGroup"></path>
            <path d="M28.0868229,4.19524696 C28.0868229,5.08407047 27.8379523,5.83068222 27.3757641,6.50618809 C27.2335523,6.64839985 27.1268935,6.82616455 27.0202347,6.93282337 C26.3091759,7.71498806 25.2781406,8.17717628 24.1404465,8.17717628 C23.251623,8.17717628 22.4339054,7.9283057 21.7939524,7.3950116 C22.1139289,6.57729397 22.2916936,5.75957634 22.2916936,4.83519989 C22.2916936,3.59084698 21.8650583,2.41759995 21.2606583,1.38656467 C21.9717171,0.675505867 22.9671995,0.213317642 24.1048936,0.213317642 C26.2736229,0.177764702 28.0868229,1.95541172 28.0868229,4.19524696 L28.0868229,4.19524696 Z" id="Shape" sketch:type="MSShapeGroup"></path>
        </g>
    </g>
</svg>